# Blender 3.1.0
# www.blender.org
mtllib Hole.mtl
o Cube
v 0.000000 -0.535294 -0.800000
v 0.156072 -0.535294 -0.784628
v 0.306147 -0.535294 -0.739104
v 0.444456 -0.535294 -0.665176
v 0.565685 -0.535294 -0.565685
v 0.665176 -0.535294 -0.444456
v 0.739104 -0.535294 -0.306147
v 0.784628 -0.535294 -0.156072
v 0.800000 -0.535294 0.000000
v 0.784628 -0.535294 0.156072
v 0.739104 -0.535294 0.306147
v 0.665176 -0.535294 0.444456
v 0.565685 -0.535294 0.565685
v 0.444456 -0.535294 0.665176
v 0.306147 -0.535294 0.739104
v 0.156072 -0.535294 0.784628
v -0.000000 -0.535294 0.800000
v -0.156072 -0.535294 0.784628
v -0.306147 -0.535294 0.739104
v -0.444456 -0.535294 0.665176
v -0.565685 -0.535294 0.565685
v -0.665176 -0.535294 0.444456
v -0.739104 -0.535294 0.306147
v -0.784628 -0.535294 0.156072
v -0.800000 -0.535294 -0.000000
v -0.784628 -0.535294 -0.156072
v -0.739104 -0.535294 -0.306147
v -0.665176 -0.535294 -0.444456
v -0.565686 -0.535294 -0.565685
v -0.444456 -0.535294 -0.665176
v -0.306147 -0.535294 -0.739104
v -0.156072 -0.535294 -0.784628
v -1.000000 -1.000000 1.000000
v -1.000000 1.000000 1.000000
v -1.000000 -1.000000 -1.000000
v -1.000000 1.000000 -1.000000
v 1.000000 -1.000000 1.000000
v 1.000000 1.000000 1.000000
v 1.000000 -1.000000 -1.000000
v 1.000000 1.000000 -1.000000
v -0.739104 1.000000 -0.306147
v -0.665176 1.000000 -0.444456
v 0.306147 1.000000 -0.739104
v 0.156072 1.000000 -0.784628
v -0.784628 1.000000 -0.156072
v 0.565685 1.000000 -0.565685
v 0.444456 1.000000 0.665176
v 0.306147 1.000000 0.739104
v 0.665176 1.000000 -0.444456
v 0.156072 1.000000 0.784628
v -0.306147 1.000000 0.739104
v -0.800000 1.000000 -0.000000
v -0.306147 1.000000 -0.739104
v -0.444456 1.000000 0.665176
v 0.784628 1.000000 0.156072
v 0.565685 1.000000 0.565685
v 0.739104 1.000000 0.306147
v 0.800000 1.000000 0.000000
v -0.565686 1.000000 -0.565685
v -0.444456 1.000000 -0.665176
v -0.000000 1.000000 0.800000
v 0.000000 1.000000 -0.800000
v 0.784628 1.000000 -0.156072
v 0.444456 1.000000 -0.665176
v 0.739104 1.000000 -0.306147
v -0.739104 1.000000 0.306147
v -0.665176 1.000000 0.444456
v -0.784628 1.000000 0.156072
v -0.565685 1.000000 0.565685
v -0.156072 1.000000 0.784628
v 0.665176 1.000000 0.444456
v -0.156072 1.000000 -0.784628
vn -0.0980 -0.0000 0.9952
vn -0.2903 -0.0000 0.9569
vn -0.4714 -0.0000 0.8819
vn -0.6344 -0.0000 0.7730
vn -0.7730 -0.0000 0.6344
vn -0.8819 -0.0000 0.4714
vn -0.9569 -0.0000 0.2903
vn -0.9952 -0.0000 0.0980
vn -0.9952 -0.0000 -0.0980
vn -0.9569 -0.0000 -0.2903
vn -0.8819 -0.0000 -0.4714
vn -0.7730 -0.0000 -0.6344
vn -0.6344 -0.0000 -0.7730
vn -0.4714 -0.0000 -0.8819
vn -0.2903 -0.0000 -0.9569
vn -0.0980 -0.0000 -0.9952
vn 0.0980 -0.0000 -0.9952
vn 0.2903 -0.0000 -0.9569
vn 0.4714 -0.0000 -0.8819
vn 0.6344 -0.0000 -0.7730
vn 0.7730 -0.0000 -0.6344
vn 0.8819 -0.0000 -0.4714
vn 0.9569 -0.0000 -0.2903
vn 0.9952 -0.0000 -0.0980
vn 0.9952 -0.0000 0.0980
vn 0.9569 -0.0000 0.2903
vn 0.8819 -0.0000 0.4714
vn 0.7730 -0.0000 0.6344
vn 0.6344 -0.0000 0.7730
vn 0.4714 -0.0000 0.8819
vn 0.2903 -0.0000 0.9569
vn 0.0980 -0.0000 0.9952
vn -0.0000 1.0000 -0.0000
vn -1.0000 -0.0000 -0.0000
vn -0.0000 -0.0000 -1.0000
vn 1.0000 -0.0000 -0.0000
vn -0.0000 -0.0000 1.0000
vn -0.0000 -1.0000 -0.0000
vt 1.000000 0.500000
vt 0.000000 0.500000
vt 0.750000 0.490000
vt 0.968750 0.500000
vt 0.796822 0.485388
vt 0.937500 0.500000
vt 0.841844 0.471731
vt 0.906250 0.500000
vt 0.883337 0.449553
vt 0.875000 0.500000
vt 0.919706 0.419706
vt 0.843750 0.500000
vt 0.949553 0.383337
vt 0.812500 0.500000
vt 0.971731 0.341844
vt 0.781250 0.500000
vt 0.985388 0.296822
vt 0.750000 0.500000
vt 0.990000 0.250000
vt 0.718750 0.500000
vt 0.985388 0.203178
vt 0.687500 0.500000
vt 0.971731 0.158156
vt 0.656250 0.500000
vt 0.949553 0.116663
vt 0.625000 0.500000
vt 0.919706 0.080294
vt 0.593750 0.500000
vt 0.883337 0.050447
vt 0.562500 0.500000
vt 0.841844 0.028269
vt 0.531250 0.500000
vt 0.796822 0.014612
vt 0.500000 0.500000
vt 0.750000 0.010000
vt 0.468750 0.500000
vt 0.703178 0.014612
vt 0.437500 0.500000
vt 0.658156 0.028269
vt 0.406250 0.500000
vt 0.616663 0.050447
vt 0.375000 0.500000
vt 0.580294 0.080294
vt 0.343750 0.500000
vt 0.550447 0.116663
vt 0.312500 0.500000
vt 0.528269 0.158156
vt 0.281250 0.500000
vt 0.514612 0.203178
vt 0.250000 0.500000
vt 0.510000 0.250000
vt 0.218750 0.500000
vt 0.514612 0.296822
vt 0.187500 0.500000
vt 0.528269 0.341844
vt 0.156250 0.500000
vt 0.550447 0.383337
vt 0.125000 0.500000
vt 0.580294 0.419706
vt 0.093750 0.500000
vt 0.616663 0.449553
vt 0.062500 0.500000
vt 0.658156 0.471731
vt 0.031250 0.500000
vt 0.703178 0.485388
vt 0.375000 0.000000
vt 0.375000 1.000000
vt 0.125000 0.750000
vt 0.625000 0.000000
vt 0.625000 1.000000
vt 0.875000 0.750000
vt 0.375000 0.250000
vt 0.125000 0.500000
vt 0.625000 0.250000
vt 0.875000 0.500000
vt 0.375000 0.750000
vt 0.625000 0.750000
vt 0.375000 0.500000
vt 0.625000 0.500000
vt 0.187500 0.755882
vt 0.842388 0.586732
vt 0.156250 0.755882
vt 0.833147 0.569443
vt 0.937500 0.755882
vt 0.711732 0.532612
vt 0.968750 0.755882
vt 0.730491 0.526921
vt 0.218750 0.755882
vt 0.848079 0.605491
vt 0.875000 0.755882
vt 0.679289 0.554289
vt 0.593750 0.755882
vt 0.694443 0.708147
vt 0.562500 0.755882
vt 0.711732 0.717388
vt 0.843750 0.755882
vt 0.666853 0.569443
vt 0.531250 0.755882
vt 0.730491 0.723078
vt 0.437500 0.755882
vt 0.788268 0.717388
vt 0.250000 0.755882
vt 0.850000 0.625000
vt 0.062500 0.755882
vt 0.788268 0.532612
vt 0.406250 0.755882
vt 0.805557 0.708147
vt 0.718750 0.755882
vt 0.651921 0.644509
vt 0.625000 0.755882
vt 0.679289 0.695711
vt 0.687500 0.755882
vt 0.657612 0.663268
vt 0.750000 0.755882
vt 0.650000 0.625000
vt 0.125000 0.755882
vt 0.820711 0.554289
vt 0.093750 0.755882
vt 0.805557 0.541853
vt 0.500000 0.755882
vt 0.750000 0.725000
vt 1.000000 0.755882
vt 0.000000 0.755882
vt 0.750000 0.525000
vt 0.781250 0.755882
vt 0.651921 0.605491
vt 0.906250 0.755882
vt 0.694443 0.541853
vt 0.812500 0.755882
vt 0.657612 0.586732
vt 0.312500 0.755882
vt 0.842388 0.663268
vt 0.343750 0.755882
vt 0.833147 0.680557
vt 0.281250 0.755882
vt 0.848079 0.644509
vt 0.375000 0.755882
vt 0.820711 0.695711
vt 0.468750 0.755882
vt 0.769509 0.723078
vt 0.656250 0.755882
vt 0.666853 0.680557
vt 0.031250 0.755882
vt 0.769509 0.526921
s 0
f 1/1/1 2/4/1 44/86/1 62/122/1
f 2/4/2 3/6/2 43/84/2 44/86/2
f 3/6/3 4/8/3 64/127/3 43/84/3
f 4/8/4 5/10/4 46/90/4 64/127/4
f 5/10/5 6/12/5 49/96/5 46/90/5
f 6/12/6 7/14/6 65/129/6 49/96/6
f 7/14/7 8/16/7 63/125/7 65/129/7
f 8/16/8 9/18/8 58/114/8 63/125/8
f 9/18/9 10/20/9 55/108/9 58/114/9
f 10/20/10 11/22/10 57/112/10 55/108/10
f 11/22/11 12/24/11 71/141/11 57/112/11
f 12/24/12 13/26/12 56/110/12 71/141/12
f 13/26/13 14/28/13 47/92/13 56/110/13
f 14/28/14 15/30/14 48/94/14 47/92/14
f 15/30/15 16/32/15 50/98/15 48/94/15
f 16/32/16 17/34/16 61/120/16 50/98/16
f 17/34/17 18/36/17 70/139/17 61/120/17
f 18/36/18 19/38/18 51/100/18 70/139/18
f 19/38/19 20/40/19 54/106/19 51/100/19
f 20/40/20 21/42/20 69/137/20 54/106/20
f 21/42/21 22/44/21 67/133/21 69/137/21
f 22/44/22 23/46/22 66/131/22 67/133/22
f 23/46/23 24/48/23 68/135/23 66/131/23
f 24/48/24 25/50/24 52/102/24 68/135/24
f 25/50/25 26/52/25 45/88/25 52/102/25
f 26/52/26 27/54/26 41/80/26 45/88/26
f 27/54/27 28/56/27 42/82/27 41/80/27
f 28/56/28 29/58/28 59/116/28 42/82/28
f 29/58/29 30/60/29 60/118/29 59/116/29
f 30/60/30 31/62/30 53/104/30 60/118/30
f 31/62/31 32/64/31 72/143/31 53/104/31
f 32/64/32 1/2/32 62/123/32 72/143/32
f 1/3/33 32/65/33 31/63/33 30/61/33 29/59/33 28/57/33 27/55/33 26/53/33 25/51/33 24/49/33 23/47/33 22/45/33 21/43/33 20/41/33 19/39/33 18/37/33 17/35/33 16/33/33 15/31/33 14/29/33 13/27/33 12/25/33 11/23/33 10/21/33 9/19/33 8/17/33 7/15/33 6/13/33 5/11/33 4/9/33 3/7/33 2/5/33
f 33/66/34 34/69/34 36/74/34 35/72/34
f 35/72/35 36/74/35 40/79/35 39/78/35
f 39/78/36 40/79/36 38/77/36 37/76/36
f 37/76/37 38/77/37 34/70/37 33/67/37
f 35/73/38 39/78/38 37/76/38 33/68/38
f 40/79/33 58/115/33 55/109/33 57/113/33 71/142/33 56/111/33 47/93/33 48/95/33 50/99/33 61/121/33 70/140/33 51/101/33 54/107/33 69/138/33 67/134/33 66/132/33 68/136/33 52/103/33 34/71/33 38/77/33
f 34/71/33 52/103/33 45/89/33 41/81/33 42/83/33 59/117/33 60/119/33 53/105/33 72/144/33 62/124/33 44/87/33 43/85/33 64/128/33 46/91/33 49/97/33 65/130/33 63/126/33 58/115/33 40/79/33 36/75/33
